<svg width="1920" height="155" viewBox="0 0 1920 155" fill="none" xmlns="http://www.w3.org/2000/svg">
<path d="M1917.38 9.63709C1915.07 9.37439 1912.74 9.10707 1910.4 8.83976C1908.05 8.58627 1905.68 8.36505 1903.3 8.12539C1898.54 7.6599 1893.73 7.18979 1888.9 6.71508C1884.03 6.30951 1879.14 5.89932 1874.22 5.48452C1871.76 5.28173 1869.29 5.08355 1866.82 4.88076C1864.34 4.71024 1861.85 4.53971 1859.36 4.37379C1854.38 4.03735 1849.38 3.70551 1844.38 3.36906C1839.37 3.10175 1834.35 2.82983 1829.34 2.56252C1826.83 2.43347 1824.33 2.2906 1821.83 2.17077C1819.33 2.06937 1816.82 1.96798 1814.33 1.86658C1809.34 1.6684 1804.36 1.46561 1799.41 1.26743C1794.46 1.12917 1789.53 0.990901 1784.65 0.857245C1782.21 0.788112 1779.77 0.71898 1777.35 0.649847C1774.93 0.585323 1772.52 0.562279 1770.12 0.51619C1731.73 -0.225833 1696.6 0.0921769 1669.91 0C1652.34 0.520799 1636.63 1.20752 1621.56 1.93111C1614.04 2.33207 1606.67 2.72844 1599.3 3.12019C1591.95 3.53959 1584.62 4.01891 1577.15 4.4798C1547.3 6.42473 1515.32 8.75219 1472.17 12.49C1440.71 15.8498 1451.2 15.753 1474.87 14.3934C1498.58 13.0937 1535.61 10.7939 1557.43 9.7984C1562.52 9.40204 1567.62 8.97803 1572.78 8.62775C1577.94 8.28209 1583.13 7.94104 1588.33 7.59076C1598.74 6.881 1609.31 6.37403 1619.93 5.81636C1625.24 5.526 1630.59 5.32321 1635.95 5.1066C1641.31 4.8992 1646.69 4.6918 1652.08 4.4798C1657.48 4.3277 1662.9 4.17561 1668.33 4.02352C1673.76 3.87604 1679.19 3.71934 1684.65 3.65481C1690.1 3.57185 1695.57 3.48889 1701.03 3.40594C1706.5 3.32758 1711.98 3.34602 1717.46 3.31376C1728.41 3.22158 1739.39 3.37828 1750.35 3.45663C1755.83 3.51655 1761.31 3.65481 1766.78 3.75621L1774.98 3.92213C1777.71 3.98204 1780.44 4.08804 1783.16 4.171C1788.61 4.34614 1794.05 4.52127 1799.48 4.69641C1804.9 4.93607 1810.31 5.17573 1815.71 5.41078C1837.28 6.45238 1858.6 7.74747 1879.37 9.53109C1881.97 9.74309 1884.56 9.95049 1887.15 10.1625C1889.72 10.4068 1892.29 10.6464 1894.86 10.8861C1899.98 11.3792 1905.1 11.8171 1910.15 12.3425C1913.45 12.6928 1916.72 13.043 1920 13.3933V9.92284C1919.13 9.82144 1918.27 9.72466 1917.39 9.62326L1917.38 9.63709Z" fill="white"/>
<path d="M1349.01 31.566C1345.41 31.9301 1341.8 32.2849 1338.19 32.6352C1337.36 32.6629 1336.59 32.6859 1335.9 32.6997C1330.66 32.8104 1329.56 32.4923 1334.32 31.5706C1336.7 31.1097 1340.55 30.5013 1346.08 29.7224C1351.61 28.9343 1358.84 27.9296 1367.98 26.7405C1375.24 25.3763 1373.69 24.8278 1376.55 23.8738C1379.41 22.906 1386.73 21.5924 1411.8 18.7718C1404.68 18.9746 1395.86 19.4539 1386.28 20.1038C1381.49 20.4172 1376.53 20.8181 1371.49 21.2422C1366.46 21.6662 1361.36 22.1224 1356.3 22.5926C1346.14 23.565 1336.4 24.4914 1327.74 25.4086C1319.08 26.3303 1311.54 27.2244 1306.03 27.9803C1303.6 27.9757 1300.65 28.0448 1297.26 28.1739C1293.85 28.2845 1289.97 28.4089 1285.73 28.6025C1277.23 28.9758 1267.22 29.5427 1256.29 30.2386C1253.56 30.4138 1250.77 30.5935 1247.93 30.7779C1245.09 30.9714 1242.18 31.0959 1239.24 31.2618C1233.36 31.589 1227.31 31.9255 1221.18 32.2665C1208.92 32.9394 1196.36 33.7828 1183.94 34.2852C1171.55 34.8567 1159.42 35.4005 1148.14 35.8706C1145.33 36.0043 1142.55 36.0596 1139.84 36.1425C1137.13 36.2163 1134.48 36.2854 1131.91 36.3546C1126.76 36.4836 1121.9 36.585 1117.41 36.6541C1108.42 36.7924 1100.89 36.8016 1095.43 36.6265C1089.96 36.4099 1086.55 35.9997 1085.81 35.4005C1076.84 35.9305 1068.15 36.4099 1059.72 36.8431C1051.29 37.2671 1043.12 37.7003 1035.14 37.9446C1027.17 38.2211 1019.43 38.4562 1011.87 38.659C1004.32 38.8572 996.965 39.0692 989.755 39.166C975.335 39.318 961.555 39.3872 948.155 39.378C941.455 39.3964 934.845 39.2904 928.285 39.212C921.735 39.1153 915.245 39.0185 908.775 38.9217C902.315 38.8111 895.875 38.7051 889.425 38.5945C882.975 38.4331 876.525 38.2718 870.026 38.1059C863.526 37.9538 856.986 37.8063 850.376 37.6543C847.066 37.5805 843.746 37.5114 840.396 37.4376C837.046 37.3501 833.666 37.2625 830.266 37.1749C816.656 36.8247 802.606 36.5205 787.826 36.29C773.046 35.9536 757.536 35.7231 741.026 35.5664C730.536 35.4328 721.136 35.3176 712.706 35.2116C704.276 35.1194 696.816 35.0549 690.226 35.0088C677.046 34.8521 667.337 34.7968 660.257 34.8106C646.097 34.8429 642.437 35.1655 642.517 35.6356C642.597 36.1011 646.407 36.7187 647.147 37.3086C647.517 37.6036 647.127 37.8893 645.107 38.1382C643.097 38.3824 639.457 38.6175 633.367 38.7189C612.377 37.8893 591.327 37.41 570.787 36.8062C550.227 36.2992 530.187 35.8015 511.177 35.336C473.128 34.4327 439.198 33.5339 413.628 32.6675C402.158 32.1743 391.838 31.5982 383.268 31.0913C374.698 30.5843 367.898 30.1188 363.488 29.7685C354.658 29.068 355.398 28.7961 370.748 29.3445C288.179 24.8693 228.739 21.2376 145.989 15.3521C88.6595 11.2732 38.2798 15.9189 0 20.0531V155H1919.99V16.4674C1770.95 1.1476 1603.81 5.96845 1349.01 31.566Z" fill="white"/>
</svg>
